<svg xmlns="http://www.w3.org/2000/svg" xmlns:xlink="http://www.w3.org/1999/xlink" width="500" zoomAndPan="magnify" viewBox="0 0 375 374.999991" height="500" preserveAspectRatio="xMidYMid meet" version="1.0"><defs><clipPath id="1d991a5fc5"><path d="M 57.5625 37.5 L 223 37.5 L 223 295 L 57.5625 295 Z M 57.5625 37.5 " clip-rule="nonzero"/></clipPath><clipPath id="f11fcec97f"><path d="M 152 72 L 317.8125 72 L 317.8125 337.5 L 152 337.5 Z M 152 72 " clip-rule="nonzero"/></clipPath></defs><g clip-path="url(#1d991a5fc5)"><path fill="#ffffff" d="M 174.3125 274.300781 C 174.3125 221.578125 174.3125 168.859375 174.3125 116.128906 L 139.160156 136.398438 L 139.160156 169.949219 L 92.75 169.949219 L 92.75 132.769531 C 136.109375 107.761719 179.46875 82.769531 222.839844 57.761719 L 187.6875 37.5 C 144.328125 62.507812 100.957031 87.496094 57.601562 112.507812 C 57.601562 162.503906 57.601562 212.507812 57.601562 262.507812 L 92.75 282.769531 L 92.75 205.050781 L 139.160156 205.050781 L 139.160156 294.5625 Z M 174.3125 274.300781 " fill-opacity="1" fill-rule="nonzero"/></g><g clip-path="url(#f11fcec97f)"><path fill="#ffffff" d="M 317.78125 153.023438 L 317.78125 112.507812 L 249.191406 72.960938 C 233.160156 82.210938 217.113281 91.457031 201.082031 100.710938 C 201.082031 153.433594 201.082031 206.152344 201.082031 258.871094 L 236.21875 238.609375 L 236.21875 205.050781 L 282.640625 205.050781 L 282.640625 242.230469 C 239.285156 267.238281 195.914062 292.242188 152.554688 317.238281 L 187.6875 337.5 L 317.773438 262.507812 C 317.773438 231.652344 317.773438 200.800781 317.773438 169.949219 L 236.21875 169.949219 L 236.21875 106.003906 Z M 317.78125 153.023438 " fill-opacity="1" fill-rule="nonzero"/></g></svg>